<svg xmlns="http://www.w3.org/2000/svg" viewBox="0 0 44.72 44.71"><g id="Capa_2" data-name="Capa 2"><g id="Capa_4" data-name="Capa 4"><path d="M16.77,22.36A11.18,11.18,0,1,0,5.59,11.18,11.2,11.2,0,0,0,16.77,22.36Zm0-18.63a7.45,7.45,0,1,1-7.45,7.45A7.46,7.46,0,0,1,16.77,3.73ZM39.13,26.08H29.81a5.6,5.6,0,0,0-5.59,5.59v7.46a5.59,5.59,0,0,0,5.59,5.58h9.32a5.59,5.59,0,0,0,5.59-5.58V31.67A5.6,5.6,0,0,0,39.13,26.08ZM41,39.13A1.87,1.87,0,0,1,39.13,41H29.81A1.87,1.87,0,0,1,28,39.13V31.67a1.86,1.86,0,0,1,1.86-1.86h9.32A1.86,1.86,0,0,1,41,31.67Zm-3.73-5.59A1.86,1.86,0,0,1,35.4,35.4H33.54a1.87,1.87,0,1,1,0-3.73H35.4A1.87,1.87,0,0,1,37.26,33.54Zm-17.42-2a1.87,1.87,0,0,1,.21,2.63l-.93,1.09a1.83,1.83,0,0,1-.39.34A3.55,3.55,0,0,1,14.1,35L9.76,29.83a12.93,12.93,0,0,0-6,11v2.06a1.87,1.87,0,0,1-3.73,0V40.79a16.68,16.68,0,0,1,7.73-14.1,3.75,3.75,0,0,1,4.88.74l4.12,4.89.48-.57a1.86,1.86,0,0,1,2.63-.21Z"/></g></g></svg>