<svg xmlns="http://www.w3.org/2000/svg" viewBox="0 0 44.43 44.43"><g id="Capa_2" data-name="Capa 2"><g id="Capa_4" data-name="Capa 4"><path d="M40.73,33.66V21.18a7.37,7.37,0,0,0,3.7-6.37,2.24,2.24,0,0,0-.07-.51L42.19,6.71A9.3,9.3,0,0,0,33.29,0H11.14a9.3,9.3,0,0,0-8.9,6.71L.07,14.3a1.79,1.79,0,0,0-.07.51,7.4,7.4,0,0,0,3.7,6.38V33.67A5.54,5.54,0,0,0,5.55,44.43H38.87a5.54,5.54,0,0,0,1.86-10.76ZM5.8,7.73a5.58,5.58,0,0,1,5.34-4H13V7.41a1.85,1.85,0,1,0,3.7,0V3.7H27.77V7.41a1.85,1.85,0,1,0,3.7,0V3.7h1.82a5.59,5.59,0,0,1,5.34,4l2.09,7.32A3.71,3.71,0,0,1,37,18.52H35.17a3.71,3.71,0,0,1-3.7-3.71,1.85,1.85,0,1,0-3.7,0,3.71,3.71,0,0,1-3.7,3.71H20.36a3.71,3.71,0,0,1-3.7-3.71,1.85,1.85,0,0,0-3.7,0,3.71,3.71,0,0,1-3.7,3.71H7.4a3.71,3.71,0,0,1-3.69-3.47ZM9.26,22.22a7.37,7.37,0,0,0,5.55-2.56,7.37,7.37,0,0,0,5.55,2.56h3.71a7.37,7.37,0,0,0,5.55-2.56,7.37,7.37,0,0,0,5.55,2.56H37v11.1H28.69a1.86,1.86,0,0,0-1.31.55l-1.3,1.3H18.35L17,33.87a1.82,1.82,0,0,0-1.31-.55H7.4V22.22ZM38.87,40.73H5.55a1.85,1.85,0,0,1,0-3.7H15l1.31,1.3a1.84,1.84,0,0,0,1.31.55h9.25a1.86,1.86,0,0,0,1.31-.55L29.46,37h9.41a1.85,1.85,0,1,1,0,3.7Z"/></g></g></svg>