<svg xmlns="http://www.w3.org/2000/svg" viewBox="0 0 43.74 43.74"><g id="Capa_2" data-name="Capa 2"><g id="Capa_4" data-name="Capa 4"><path d="M43.2,40.63l-6.45-6.46a9,9,0,0,0,1.52-5,9.14,9.14,0,1,0-4.09,7.59l6.45,6.45a1.82,1.82,0,1,0,2.57-2.57ZM23.69,29.16a5.47,5.47,0,1,1,5.47,5.47A5.48,5.48,0,0,1,23.69,29.16Zm3.65-18.23A10.94,10.94,0,1,0,16.4,21.87,10.95,10.95,0,0,0,27.34,10.93ZM16.4,18.22a7.29,7.29,0,1,1,7.29-7.29A7.3,7.3,0,0,1,16.4,18.22Zm0,9a1.83,1.83,0,0,1-1.59,2A12.76,12.76,0,0,0,3.64,41.91a1.82,1.82,0,1,1-3.64,0A16.42,16.42,0,0,1,14.35,25.64a1.83,1.83,0,0,1,2,1.58Z"/></g></g></svg>