<svg xmlns="http://www.w3.org/2000/svg" viewBox="0 0 44.43 44.43"><g id="Capa_2" data-name="Capa 2"><g id="Capa_4" data-name="Capa 4"><path d="M10.18,13A6.48,6.48,0,1,0,3.7,6.48,6.48,6.48,0,0,0,10.18,13Zm0-9.26A2.78,2.78,0,1,1,7.41,6.48,2.79,2.79,0,0,1,10.18,3.7ZM9.26,18.51A5.57,5.57,0,0,0,3.7,24.07a1.85,1.85,0,0,1-3.7,0,9.27,9.27,0,0,1,9.26-9.26,1.85,1.85,0,1,1,0,3.7Zm13,13a1.85,1.85,0,0,1-1.86,1.85H18.51A5.57,5.57,0,0,0,13,38.88a1.85,1.85,0,1,1-3.7,0,9.26,9.26,0,0,1,9.25-9.26h1.85A1.85,1.85,0,0,1,22.22,31.47ZM28.7,13a6.48,6.48,0,1,0-6.48-6.48A6.49,6.49,0,0,0,28.7,13Zm0-9.26a2.78,2.78,0,1,1-2.78,2.78A2.78,2.78,0,0,1,28.7,3.7Zm.92,11.11a9.29,9.29,0,0,1,8,4.63A1.85,1.85,0,0,1,37,22a1.82,1.82,0,0,1-.92.25,1.88,1.88,0,0,1-1.61-.93,5.58,5.58,0,0,0-4.81-2.78,1.85,1.85,0,0,1,0-3.7ZM44.43,35.18A1.85,1.85,0,0,1,42.58,37H37v5.55a1.86,1.86,0,0,1-3.71,0V37H27.77a1.86,1.86,0,0,1,0-3.71h5.55V27.77a1.86,1.86,0,0,1,3.71,0v5.55h5.55A1.85,1.85,0,0,1,44.43,35.18Zm-25-20.37a6.48,6.48,0,1,0,6.48,6.48A6.49,6.49,0,0,0,19.44,14.81Zm0,9.26a2.78,2.78,0,1,1,2.78-2.78A2.79,2.79,0,0,1,19.44,24.07Z"/></g></g></svg>