<svg xmlns="http://www.w3.org/2000/svg" viewBox="0 0 43.15 43.15"><g id="Capa_2" data-name="Capa 2"><g id="Capa_4" data-name="Capa 4"><path d="M35.06,28.77a1.8,1.8,0,0,1-1.8,1.8H29.67a1.8,1.8,0,0,1,0-3.6h3.59A1.79,1.79,0,0,1,35.06,28.77ZM43.15,27v9A7.19,7.19,0,0,1,36,43.15H7.19A7.2,7.2,0,0,1,0,36V27a7.2,7.2,0,0,1,7.19-7.19H9V7.19A7.2,7.2,0,0,1,16.18,0H27a7.2,7.2,0,0,1,7.19,7.19V19.78H36A7.19,7.19,0,0,1,43.15,27ZM12.59,19.78h18V7.19A3.6,3.6,0,0,0,27,3.6H16.18a3.59,3.59,0,0,0-3.59,3.59ZM7.19,39.56H19.78V23.37H7.19A3.6,3.6,0,0,0,3.6,27v9A3.6,3.6,0,0,0,7.19,39.56ZM39.56,27a3.61,3.61,0,0,0-3.6-3.6H23.37V39.56H36a3.61,3.61,0,0,0,3.6-3.6ZM13.49,27H9.89a1.8,1.8,0,0,0,0,3.6h3.6a1.8,1.8,0,0,0,0-3.6ZM25.17,9a1.8,1.8,0,0,0-1.8-1.8H19.78a1.8,1.8,0,0,0,0,3.6h3.59A1.8,1.8,0,0,0,25.17,9Z"/></g></g></svg>