<svg xmlns="http://www.w3.org/2000/svg" viewBox="0 0 44.58 44.61"><g id="Capa_2" data-name="Capa 2"><g id="Capa_4" data-name="Capa 4"><path d="M44.56,20.53A5.53,5.53,0,0,1,43,24.92c-2.77,2.63-6.12,5.79-6.56,6.12a1.89,1.89,0,0,1-1.1.35,1.86,1.86,0,0,1-1.13-3.33c.43-.36,3.5-3.25,6.19-5.8a1.85,1.85,0,0,0,.51-1.44,1.88,1.88,0,0,0-.79-1.37,2,2,0,0,0-2.52.35,1.86,1.86,0,0,1-3.17-1.31L34.34,7A1.39,1.39,0,0,0,33,5.58,1.34,1.34,0,0,0,32,6a1.37,1.37,0,0,0-.39.9v4.26a1.86,1.86,0,1,1-3.71,0V5.1a1.38,1.38,0,0,0-1.39-1.38,1.34,1.34,0,0,0-1,.41,1.38,1.38,0,0,0-.4,1l0,2.35a1.86,1.86,0,0,1-3.54.77A1.89,1.89,0,0,0,20,7.43a1.38,1.38,0,0,0-1.26.8,1.86,1.86,0,0,1-3.36-1.59,5.29,5.29,0,0,1,6.15-2.71A5.14,5.14,0,0,1,22.87,1.5a5.09,5.09,0,0,1,7.9.86A5.09,5.09,0,0,1,38.06,7l0,8.56a5.48,5.48,0,0,1,4.15.91,5.57,5.57,0,0,1,2.32,4.09ZM28.23,16.37A5.13,5.13,0,0,1,29.72,20V33.46A11.17,11.17,0,0,1,18.57,44.61h-3a12.47,12.47,0,0,1-8.88-3.68L1.66,36.1A5.63,5.63,0,0,1,0,31.67a5.57,5.57,0,0,1,2.32-4.09,5.43,5.43,0,0,1,4.15-.9l0-8.57a5.07,5.07,0,0,1,7.29-4.59,5.08,5.08,0,0,1,9.26,1.61,4.88,4.88,0,0,1,1.54-.26,5.07,5.07,0,0,1,3.62,1.5ZM26,20a1.4,1.4,0,1,0-2.79,0v6a1.86,1.86,0,0,1-3.72,0V16.27a1.39,1.39,0,1,0-2.77,0l0,9.77A1.86,1.86,0,1,1,13,26l0-8a1.35,1.35,0,0,0-.39-.91,1.39,1.39,0,0,0-2.37,1l0,11.53a1.85,1.85,0,0,1-1.15,1.71A1.87,1.87,0,0,1,7,31a2,2,0,0,0-2.52-.36A1.92,1.92,0,0,0,3.72,32a1.88,1.88,0,0,0,.54,1.46l5.07,4.83a8.81,8.81,0,0,0,6.28,2.62h3A7.43,7.43,0,0,0,26,33.46V20Z"/></g></g></svg>