<svg xmlns="http://www.w3.org/2000/svg" viewBox="0 0 53.03 53.03"><defs><style>.cls-1{fill:#0d181c;}</style></defs><g id="Capa_2" data-name="Capa 2"><g id="Capa_7" data-name="Capa 7"><path class="cls-1" d="M26.54,12.8a13.72,13.72,0,1,0,13.7,13.71A13.73,13.73,0,0,0,26.54,12.8Zm0,22.85a9.14,9.14,0,1,1,9.13-9.14A9.16,9.16,0,0,1,26.54,35.65ZM41.16,9.15a2.74,2.74,0,1,0,2.74,2.73A2.72,2.72,0,0,0,41.16,9.15Zm0,0a2.74,2.74,0,1,0,2.74,2.73A2.72,2.72,0,0,0,41.16,9.15ZM26.54,12.8a13.72,13.72,0,1,0,13.7,13.71A13.73,13.73,0,0,0,26.54,12.8Zm0,22.85a9.14,9.14,0,1,1,9.13-9.14A9.16,9.16,0,0,1,26.54,35.65ZM40.23,0H12.8A12.81,12.81,0,0,0,0,12.8V40.23A12.81,12.81,0,0,0,12.8,53H40.23A12.81,12.81,0,0,0,53,40.23V12.8A12.81,12.81,0,0,0,40.23,0Zm8.23,39.31a9.15,9.15,0,0,1-9.15,9.15H13.72a9.15,9.15,0,0,1-9.15-9.15V13.72a9.15,9.15,0,0,1,9.15-9.15H39.31a9.15,9.15,0,0,1,9.15,9.15ZM41.16,9.15a2.74,2.74,0,1,0,2.74,2.73A2.72,2.72,0,0,0,41.16,9.15ZM26.54,12.8a13.72,13.72,0,1,0,13.7,13.71A13.73,13.73,0,0,0,26.54,12.8Zm0,22.85a9.14,9.14,0,1,1,9.13-9.14A9.16,9.16,0,0,1,26.54,35.65Z"/><path class="cls-1" d="M40.23,0H12.8A12.81,12.81,0,0,0,0,12.8V40.23A12.81,12.81,0,0,0,12.8,53H40.23A12.81,12.81,0,0,0,53,40.23V12.8A12.81,12.81,0,0,0,40.23,0Zm8.23,39.31a9.15,9.15,0,0,1-9.15,9.15H13.72a9.15,9.15,0,0,1-9.15-9.15V13.72a9.15,9.15,0,0,1,9.15-9.15H39.31a9.15,9.15,0,0,1,9.15,9.15Z"/><path class="cls-1" d="M26.54,12.8a13.72,13.72,0,1,0,13.7,13.71A13.73,13.73,0,0,0,26.54,12.8Zm0,22.85a9.14,9.14,0,1,1,9.13-9.14A9.16,9.16,0,0,1,26.54,35.65Z"/><path class="cls-1" d="M43.9,11.88a2.74,2.74,0,1,1-2.74-2.73A2.73,2.73,0,0,1,43.9,11.88Z"/></g></g></svg>