<svg xmlns="http://www.w3.org/2000/svg" viewBox="0 0 48.81 49.9"><defs><style>.cls-1{fill:#0d181c;}</style></defs><g id="Capa_2" data-name="Capa 2"><g id="Capa_7" data-name="Capa 7"><path class="cls-1" d="M36.89,16.28a12.35,12.35,0,0,0-9.77,4.65v-1.4A2.19,2.19,0,0,0,25,17.36H18.44a2.2,2.2,0,0,0-2.18,2.17v28.2a2.18,2.18,0,0,0,2.18,2.17H25a2.17,2.17,0,0,0,2.17-2.17V32.55a5.43,5.43,0,1,1,10.85,0V47.73a2.17,2.17,0,0,0,2.17,2.17h6.52a2.16,2.16,0,0,0,2.15-2.17V29.3C48.81,20.63,42.88,16.28,36.89,16.28ZM11.44,17.36H1.57a.5.5,0,0,0-.49.49V49.43a.49.49,0,0,0,.49.47h9.87a.49.49,0,0,0,.5-.47V17.85A.51.51,0,0,0,11.44,17.36ZM6.5,0A6.52,6.52,0,1,0,13,6.52,6.5,6.5,0,0,0,6.5,0Z"/><path class="cls-1" d="M13,6.52A6.51,6.51,0,1,1,6.5,0,6.52,6.52,0,0,1,13,6.52Z"/><path class="cls-1" d="M11.94,17.85V49.43a.49.49,0,0,1-.5.47H1.57a.49.49,0,0,1-.49-.47V17.85a.5.5,0,0,1,.49-.49h9.87A.51.51,0,0,1,11.94,17.85Z"/><path class="cls-1" d="M48.81,29.3V47.73a2.16,2.16,0,0,1-2.15,2.17H40.14A2.17,2.17,0,0,1,38,47.73V32.55a5.43,5.43,0,1,0-10.85,0V47.73A2.17,2.17,0,0,1,25,49.9H18.44a2.18,2.18,0,0,1-2.18-2.17V19.53a2.2,2.2,0,0,1,2.18-2.17H25a2.19,2.19,0,0,1,2.17,2.17v1.4a12.35,12.35,0,0,1,9.77-4.65C42.88,16.28,48.81,20.63,48.81,29.3Z"/></g></g></svg>