<svg xmlns="http://www.w3.org/2000/svg" viewBox="0 0 141.88 59.46"><defs><style>.cls-1{fill:#0d181c;}</style></defs><g id="Capa_2" data-name="Capa 2"><g id="LAYER_1" data-name="LAYER 1"><path class="cls-1" d="M18.16,51.08,17.11,50c6.4-6.27,7.43-22.15,7.45-31.44-5.23,1.7-10.95,2.64-16.43,1.67a10.5,10.5,0,0,1-5.27-2.4A8.93,8.93,0,0,1,.19,9.4,10.36,10.36,0,0,1,4.44,3.21a18.6,18.6,0,0,1,21.49.42,12.58,12.58,0,0,1,4.24,5.54,69.84,69.84,0,0,0,9.72-5.95l4,5.18A73.39,73.39,0,0,1,31.08,16c.2,10.11-.6,24.85-6,34.18A4.39,4.39,0,0,1,18.16,51.08ZM14.93,6.54a11.8,11.8,0,0,0-6.65,2,4,4,0,0,0-1.69,2.24,2.45,2.45,0,0,0,.51,2.13,4.18,4.18,0,0,0,2.16.94c4.85.85,10.12-.25,14.91-2A6,6,0,0,0,22,8.89,11.82,11.82,0,0,0,14.93,6.54Z" transform="translate(0 0)"/><circle class="cls-1" cx="58.08" cy="17.73" r="4.63"/><path class="cls-1" d="M44.43,27.16a6.64,6.64,0,0,1,2.83-1.88,15.58,15.58,0,0,1,4.29-.42l-.39,9H48.58a4.42,4.42,0,0,0-2.89.67,4.06,4.06,0,0,0-.7,2.81v13a2.12,2.12,0,0,1-2.11,2.11h-7.2V24.86h6.66a1.94,1.94,0,0,1,1.89,1.48Z" transform="translate(0 0)"/><path class="cls-1" d="M58.61,52.39H53.46V24.86h0a21.23,21.23,0,0,0,9.25,0h0V48.15C62.71,52,62,52.39,58.61,52.39Z" transform="translate(0 0)"/><path class="cls-1" d="M99,52.39c-4.27-.32-6.6-1.91-6.6-6.84V24.86H102V43.25c0,.94.41,1.4,1.23,1.4h0a2.69,2.69,0,0,0,2.61-2.74v-17h9.42V52.28h-8.92v-2h0A9.8,9.8,0,0,1,99,52.39Z" transform="translate(0 0)"/><path class="cls-1" d="M127.07,27.14a8.69,8.69,0,0,1,6.37-2.28c3.07,0,5.13.63,6.56,2.64s1.88,5.62,1.88,10.48-.67,8.48-2,10.85-3.77,3.56-7.32,3.56a7.52,7.52,0,0,1-4.37-1.23h0v8.3h-9.42V24.86h6.12a2,2,0,0,1,1.84,1.31Zm5.08,16.2a14.72,14.72,0,0,0,.25-1.94c0-.63.06-1.84.06-3.61a16,16,0,0,0-.4-4.1c-.26-.95-.79-1.43-1.59-1.43a4.64,4.64,0,0,0-2,.47.7.7,0,0,0-.4.63V44.08a.69.69,0,0,0,.45.65,4.47,4.47,0,0,0,1.6.32,2.1,2.1,0,0,0,1.4-.37A2.36,2.36,0,0,0,132.15,43.34Z" transform="translate(0 0)"/><path class="cls-1" d="M87.58,26.57q-1.48-1.71-5.19-1.71a10.64,10.64,0,0,0-7,2.3l-.2-.82a1.94,1.94,0,0,0-1.88-1.48H66.24V52.39h9.42V36.24a2.69,2.69,0,0,1,2.61-2.74h0c.82,0,1.23.46,1.23,1.4V52.39h9.53V31.7A7.64,7.64,0,0,0,87.58,26.57Z" transform="translate(0 0)"/></g></g></svg>