<svg xmlns="http://www.w3.org/2000/svg" viewBox="0 0 43.2 31.16"><defs><style>.cls-1{fill:#0d181c;}</style></defs><g id="Capa_2" data-name="Capa 2"><g id="Capa_6" data-name="Capa 6"><path class="cls-1" d="M37.86,0H5.34A5.35,5.35,0,0,0,0,5.34V25.82a5.35,5.35,0,0,0,5.34,5.34H37.86a5.35,5.35,0,0,0,5.34-5.34V5.34A5.35,5.35,0,0,0,37.86,0Zm3.22,5.34V25.82a3.15,3.15,0,0,1-.29,1.33L27.58,15.58,40.79,4A3.12,3.12,0,0,1,41.08,5.34ZM37.86,2.12a3.21,3.21,0,0,1,1.35.3L22.61,17a1.55,1.55,0,0,1-2,0L4,2.42a3.21,3.21,0,0,1,1.35-.3Zm-35.45,25a3.15,3.15,0,0,1-.29-1.33V5.34A3.12,3.12,0,0,1,2.41,4L15.62,15.58ZM5.34,29A3.21,3.21,0,0,1,4,28.74L17.32,17.06l1.8,1.58a3.77,3.77,0,0,0,5,0l1.8-1.58L39.21,28.74a3.21,3.21,0,0,1-1.35.3Z"/></g></g></svg>