<svg xmlns="http://www.w3.org/2000/svg" viewBox="0 0 33.83 31.43"><defs><style>.cls-1{fill:#fff;fill-rule:evenodd;}</style></defs><g id="Capa_2" data-name="Capa 2"><g id="Capa_6" data-name="Capa 6"><path class="cls-1" d="M33.71,23.29c-.21-.35-.76-.55-1.59-1s-4.93-2.41-5.69-2.68-1.32-.41-1.87.41-2.15,2.69-2.64,3.24-1,.62-1.8.21a22.94,22.94,0,0,1-6.7-4.1,25.33,25.33,0,0,1-4.63-5.72c-.48-.83,0-1.27.36-1.69s.84-1,1.25-1.44a5.8,5.8,0,0,0,.84-1.38,1.53,1.53,0,0,0-.07-1.45C11,7.31,9.29,3.24,8.6,1.59S7.21,0,6.73,0A12.35,12.35,0,0,0,5.34.14a4.7,4.7,0,0,0-2.43,1A9.21,9.21,0,0,0,0,8.06c0,4.07,3,8,3.4,8.55s5.75,9.16,14.22,12.47,8.46,2.2,10,2.06,4.92-2,5.62-3.92a6.86,6.86,0,0,0,.48-3.93Z"/></g></g></svg>