<svg xmlns="http://www.w3.org/2000/svg" viewBox="0 0 1635.2 655.32"><defs><style>.cls-1{fill:#ffff48;}.cls-2{fill:#fff;}</style></defs><g id="Capa_2" data-name="Capa 2"><g id="Capa_2-2" data-name="Capa 2"><path class="cls-1" d="M1354.25,32.14a108.59,108.59,0,0,1,20.55.75l-1.93-.26a113.47,113.47,0,0,1,25,6.36c1,.37,1.93.75,2.89,1.15,1.58.65-1.51-.66.06,0l1.6.71q2.92,1.32,5.77,2.8a112.5,112.5,0,0,1,11.19,6.65c1.72,1.16,3.39,2.38,5.05,3.63.93.69-.49-.39-.55-.43a5.7,5.7,0,0,1,.62.48l1.21,1c.9.73,1.8,1.48,2.68,2.24a107.6,107.6,0,0,1,9.17,8.95q2.16,2.37,4.16,4.88c.16.19,1.35,1.72.56.69s.44.59.59.79c.72,1,1.42,1.94,2.1,2.93a103.19,103.19,0,0,1,7.18,12c.61,1.2,1.2,2.41,1.76,3.64l.78,1.74c.11.26.21.53.33.79-.93-2-.25-.6-.08-.17,1,2.42,1.87,4.89,2.65,7.38a93.19,93.19,0,0,1,3.45,15.47l-.26-1.93a83.94,83.94,0,0,1,.06,21.77l.26-1.94a80,80,0,0,1-2.23,10.74q-.75,2.64-1.66,5.22c-.29.83-.6,1.66-.92,2.48l-.53,1.32c-.1.24-.37.88.09-.22s.08-.17,0,.11a88,88,0,0,1-5,9.76q-1.41,2.35-3,4.64c-.5.73-1,1.46-1.53,2.18-.28.39-.56.77-.85,1.15l-.32.42c-.71.95.13-.21.38-.48-1.25,1.33-2.3,2.88-3.51,4.25s-2.47,2.74-3.76,4.05a95.86,95.86,0,0,1-8.21,7.4c-.37.3-.78.57-1.13.89-.1.09,1.38-1,.77-.6l-.57.43q-1.14.85-2.31,1.68-2.27,1.59-4.62,3a87.43,87.43,0,0,1-9.73,5.22c-.48.23-1,.45-1.46.66l-.49.21c-1.28.56,1.72-.7.43-.18-.94.38-1.88.76-2.82,1.11q-2.92,1.08-5.92,2a84.19,84.19,0,0,1-12.37,2.6l1.93-.26a92.28,92.28,0,0,1-24.23-.07l1.94.26a100.72,100.72,0,0,1-24.36-6.52c-.29-.11-.58-.22-.86-.35,0,0,1.77.76.71.3l-1.35-.59q-1.53-.69-3-1.41-2.83-1.38-5.58-2.92a106.16,106.16,0,0,1-10.6-6.82l-1.19-.88c-.2-.15-.39-.31-.59-.45,1.68,1.21,1,.74.59.45-.87-.69-1.74-1.38-2.59-2.1-1.61-1.34-3.19-2.74-4.71-4.19a97.37,97.37,0,0,1-8.7-9.35l-.93-1.16c-1-1.23,1.08,1.43-.11-.13q-.95-1.26-1.86-2.55c-1.29-1.83-2.53-3.72-3.69-5.64a102.21,102.21,0,0,1-6.2-11.93c-.11-.25-.21-.49-.32-.73-.53-1.22.65,1.6.12.28-.22-.55-.45-1.1-.66-1.65-.46-1.16-.9-2.34-1.32-3.52q-1.24-3.54-2.25-7.16a112.89,112.89,0,0,1-3.09-15.12l.26,1.93a118.91,118.91,0,0,1,0-31.31l-.26,1.94a118.07,118.07,0,0,1,4.93-21.49c.59-1.77,1.22-3.51,1.89-5.24.31-.81.63-1.6,1-2.4.45-1.12-.68,1.56,0,.09.21-.49.42-1,.64-1.46q2.25-5,5-9.76a101.62,101.62,0,0,1,6.07-9.39c.27-.38.55-.75.83-1.13s1-1.35.28-.37.23-.29.41-.52l1-1.24q1.77-2.14,3.68-4.18a84.94,84.94,0,0,1,8-7.46l1.08-.87c1-.79-1.24.93-.22.17.79-.59,1.59-1.18,2.41-1.75,1.52-1.05,3.07-2.06,4.67-3q2.74-1.62,5.64-3l1.51-.68c.22-.1.92-.39-.11,0s-.14.06.09,0c1-.41,2.07-.8,3.11-1.16a65.85,65.85,0,0,1,12.69-3l-1.94.26a60.34,60.34,0,0,1,15.6,0l-1.94-.26a55.17,55.17,0,0,1,6.63,1.33c1.06.28,2.11.6,3.14.95.52.17,1,.36,1.55.55s2.5,1,.37.11a8,8,0,0,0,5.6.74,7.3,7.3,0,0,0,5.09-9c-.54-1.67-1.65-3.63-3.35-4.35A63.88,63.88,0,0,0,1363,.26a67,67,0,0,0-17.94.89,72.75,72.75,0,0,0-31.35,13.91c-18.36,14-30.88,34.54-37.24,56.58a125,125,0,0,0-.69,66.65c5.68,21.07,17.44,40.44,34.15,54.56a111.22,111.22,0,0,0,26.53,16.84,112.92,112.92,0,0,0,31.65,8.89,94.63,94.63,0,0,0,59.47-12.11c17.36-10.12,32-25.74,40.32-44.1a90.34,90.34,0,0,0,8-30.61,93.51,93.51,0,0,0-4.35-35.15,107.63,107.63,0,0,0-16.32-31.78,118.56,118.56,0,0,0-24.49-24.26,120,120,0,0,0-61.29-22.81,106.24,106.24,0,0,0-15.14-.17c-3.79.22-7.46,3.18-7.28,7.27.17,3.75,3.21,7.52,7.28,7.28Z"/><path class="cls-1" d="M1395.28,86.58l-.11,15.23a7.28,7.28,0,1,0,14.55,0l.12-15.23a7.52,7.52,0,0,0-2.14-5.15,7.28,7.28,0,0,0-12.42,5.15Z"/><path class="cls-1" d="M1346.92,88.43l.25,12.63a7.53,7.53,0,0,0,2.13,5.15,7.4,7.4,0,0,0,5.14,2.13,7.32,7.32,0,0,0,5.14-2.13,7.47,7.47,0,0,0,2.14-5.15l-.25-12.63a7.48,7.48,0,0,0-2.13-5.14,7.28,7.28,0,0,0-10.29,0,7.42,7.42,0,0,0-2.13,5.14Z"/><path class="cls-1" d="M1322,140.77a95.76,95.76,0,0,0,42.12,18.09,97.63,97.63,0,0,0,71.41-15.7,7.8,7.8,0,0,0,3.34-4.35,7.43,7.43,0,0,0-.73-5.61c-2-3.1-6.61-4.92-10-2.61a91.35,91.35,0,0,1-9.18,5.59c-1.52.8-3.07,1.56-4.63,2.28l-1.18.53-.79.34.95-.4c-.86.38-1.73.71-2.6,1a92,92,0,0,1-20.59,5.24l1.93-.26a90.7,90.7,0,0,1-23.51,0l1.93.26a92,92,0,0,1-22.41-6c-1.67-.68,1.28.57,0,0-.39-.17-.79-.34-1.17-.52-.91-.41-1.81-.83-2.71-1.27q-2.58-1.28-5.09-2.71a90.44,90.44,0,0,1-9.77-6.49c-1.4-1.06-4-1.17-5.6-.73a7.28,7.28,0,0,0-5.09,8.95,8.59,8.59,0,0,0,3.35,4.35Z"/><path class="cls-2" d="M252.36,185.12c59,0,89.72,20.63,92,67.18h-56c-2.11-13.9-12.85-20.85-36-20.85-32.43,0-37.9,13.69-37.9,29.27,0,15.8,5.68,29.7,37.9,29.7,23.17,0,33.91-7.16,36-21.27h56c-2.32,46.75-32.86,67.6-92,67.6-64.86,0-92.66-24.64-92.66-76C159.7,209.54,187.5,185.12,252.36,185.12Z"/><path class="cls-2" d="M348.61,260.72c0-51.18,27.8-75.6,92.66-75.6,64.66,0,92.67,24.64,92.67,75.6,0,51.18-28,76-92.67,76C376.41,336.75,348.61,312.11,348.61,260.72Zm130.57,0c0-15.37-5.48-29.27-37.91-29.27s-37.91,13.69-37.91,29.27c0,15.8,5.69,29.7,37.91,29.7S479.18,276.31,479.18,260.72Z"/><path class="cls-2" d="M730.22,187.22V334.64H658.61l-63.6-87v87H540.25V187.22h71.61l63.6,87v-87Z"/><path class="cls-2" d="M793.4,229.34V243H894.48v35.8H793.4v13.69H894.48v42.12H738.64V187.22H894.48v42.12Z"/><path class="cls-2" d="M991.36,185.12c59,0,89.72,20.63,92,67.18h-56c-2.1-13.9-12.84-20.85-36-20.85-32.43,0-37.91,13.69-37.91,29.27,0,15.8,5.69,29.7,37.91,29.7,23.17,0,33.91-7.16,36-21.27h56c-2.31,46.75-32.85,67.6-92,67.6-64.87,0-92.66-24.64-92.66-76C898.7,209.54,926.49,185.12,991.36,185.12Z"/><path class="cls-2" d="M1266.62,233.55h-63.19V334.64h-54.75V233.55H1085.5V187.22h181.12Z"/><path class="cls-2" d="M1370.23,308.11h-62.76l-10.11,26.53h-60.23l61.08-147.42h81.29l61.07,147.42h-60.23Zm-14.32-37.91-17.06-45.07-17.06,45.07Z"/><path class="cls-2" d="M252.36,185.12c59,0,89.72,20.63,92,67.18h-56c-2.11-13.9-12.85-20.85-36-20.85-32.43,0-37.9,13.69-37.9,29.27,0,15.8,5.68,29.7,37.9,29.7,23.17,0,33.91-7.16,36-21.27h56c-2.32,46.75-32.86,67.6-92,67.6-64.86,0-92.66-24.64-92.66-76C159.7,209.54,187.5,185.12,252.36,185.12Z"/><path class="cls-2" d="M348.61,260.72c0-51.18,27.8-75.6,92.66-75.6,64.66,0,92.67,24.64,92.67,75.6,0,51.18-28,76-92.67,76C376.41,336.75,348.61,312.11,348.61,260.72Zm130.57,0c0-15.37-5.48-29.27-37.91-29.27s-37.91,13.69-37.91,29.27c0,15.8,5.69,29.7,37.91,29.7S479.18,276.31,479.18,260.72Z"/><path class="cls-2" d="M730.22,187.22V334.64H658.61l-63.6-87v87H540.25V187.22h71.61l63.6,87v-87Z"/><path class="cls-2" d="M793.4,229.34V243H894.48v35.8H793.4v13.69H894.48v42.12H738.64V187.22H894.48v42.12Z"/><path class="cls-2" d="M991.36,185.12c59,0,89.72,20.63,92,67.18h-56c-2.1-13.9-12.84-20.85-36-20.85-32.43,0-37.91,13.69-37.91,29.27,0,15.8,5.69,29.7,37.91,29.7,23.17,0,33.91-7.16,36-21.27h56c-2.31,46.75-32.85,67.6-92,67.6-64.87,0-92.66-24.64-92.66-76C898.7,209.54,926.49,185.12,991.36,185.12Z"/><path class="cls-2" d="M1266.62,233.55h-63.19V334.64h-54.75V233.55H1085.5V187.22h181.12Z"/><path class="cls-2" d="M1370.23,308.11h-62.76l-10.11,26.53h-60.23l61.08-147.42h81.29l61.07,147.42h-60.23Zm-14.32-37.91-17.06-45.07-17.06,45.07Z"/><path class="cls-1" d="M233.87,233.57,231.13,230a17.46,17.46,0,0,0-7.72-4.5A398.81,398.81,0,0,0,169.23,221q1.13-10.44,2.5-20.86c.46-3.36.94-6.71,1.44-10.07l2,.14q13.4,1,26.71,2.71a13.35,13.35,0,0,0,6.81.27,13.07,13.07,0,0,0,6.5-2.08c3.63-2.13,7.09-6.29,8-10.46,1-4.48.8-9.51-1.76-13.48q-1.36-1.78-2.74-3.55a17.4,17.4,0,0,0-7.72-4.5q-16-2.17-32.06-3.51,2.48-13.23,5.34-26.37,2.24-10.2,4.69-20.34a18.36,18.36,0,0,0-1.76-13.48c-2.13-3.63-6.29-7.09-10.46-8-4.48-1-9.51-.8-13.49,1.76-3.76,2.43-6.95,6-8,10.46q-6.53,26.94-11.41,54.25c-3.82-.06-7.65-.09-11.48-.05-11,.09-22,.58-32.89,1.38q3.19-17.61,7.26-35,2.22-9.48,4.7-18.89a18.24,18.24,0,0,0-1.77-13.49c-2.12-3.63-6.29-7.09-10.46-8-4.48-1-9.51-.8-13.48,1.77a18,18,0,0,0-8,10.45c-5.81,22.12-10.45,44.47-14.14,67-3.18.43-6.35.89-9.53,1.37q-20.71,3.16-41.12,8a17.9,17.9,0,0,0-10.46,8,13,13,0,0,0-2.07,6.5,13.16,13.16,0,0,0,.31,7c1.37,4.24,4,8.32,8,10.46A18.76,18.76,0,0,0,22.17,202q18-4.28,36.26-7.23Q55.94,216,54.72,237.28q-17,5.19-33.42,12a13.13,13.13,0,0,0-6,3.14,13.16,13.16,0,0,0-4.51,4.91,12.9,12.9,0,0,0-2.07,6.5,13.26,13.26,0,0,0,.31,7c1.37,4.23,4,8.32,8,10.46l4.18,1.76a17.51,17.51,0,0,0,9.31,0q11.31-4.72,22.94-8.67-.13,24,1.33,47.92A18.55,18.55,0,0,0,60,334.7a13.18,13.18,0,0,0,5.63,3.62,13.22,13.22,0,0,0,6.74,1.5c4.53-.2,9.22-1.69,12.38-5.12s5.41-7.75,5.12-12.38Q88.22,295.22,88.6,268c0-1.2.05-2.4.07-3.6q6.1-1.4,12.26-2.59,9.12-1.77,18.34-3.05,5.88-.75,11.79-1.31-.9,13.08-1.42,26.2-1,25.47-.53,50.95A18.19,18.19,0,0,0,134.24,347a13.18,13.18,0,0,0,5.63,3.62,13.22,13.22,0,0,0,6.74,1.5c4.53-.2,9.22-1.69,12.38-5.12a18,18,0,0,0,5.12-12.38q-.47-26.81.64-53.62.51-12.57,1.4-25.14,12.76,0,25.53,1,9.36.69,18.69,1.89c1.24.17,2.49.34,3.73.53a13.27,13.27,0,0,0,7,.32,13.07,13.07,0,0,0,6.51-2.08c3.63-2.13,7.09-6.29,8-10.46C236.65,242.57,236.43,237.54,233.87,233.57ZM90.29,228.35q.51-7.28,1.16-14.53,1-11.67,2.5-23.31,13.78-1.15,27.61-1.56c5.56-.16,11.13-.22,16.7-.21l-.06.41q-2.28,16.5-4,33A393.29,393.29,0,0,0,90.29,228.35Z"/><path class="cls-2" d="M224,463.8H153.67V576.32H92.72V463.8H22.4V412.23H224Z"/><path class="cls-2" d="M334.15,578.66C262,578.66,231,551.24,231,494V412.23H292V494c0,17.58,6.33,33.05,42.19,33.05s42.2-15.7,42.2-33.05V412.23h60.94V494C437.29,551,406.12,578.66,334.15,578.66Z"/><path class="cls-2" d="M599,518.42c0,8,7.5,13.36,46.18,13.36,36.1,0,41.49-2.34,41.49-8.44,0-7-5.39-8-43.83-9.14-74.08-2.34-102.44-14.53-102.44-52.74,0-36.1,35.4-51.57,100.09-51.57,64,0,100.09,15.47,100.09,57.43H679.66c0-8.67-14.07-10.55-43.84-10.55-28.59,0-34.45,1.41-34.45,7.74s5.86,6.09,41.49,7.5c64.69,2.58,104.77,7,104.77,49.93,0,45.24-37.5,56.72-104.77,56.72s-104.78-11.48-104.78-60.24Z"/><path class="cls-2" d="M886.4,546.78H816.54l-11.25,29.54h-67l68-164.09h90.48l68,164.09h-67Zm-15.94-42.19-19-50.16-19,50.16Z"/><path class="cls-2" d="M1172.83,527.8c0,27-16.17,48.52-53.44,48.52h-150V412.23h143c37.27,0,48.75,16.88,48.75,41.73,0,10.55-4.92,21.33-12.89,30.71C1162.52,495,1172.83,510,1172.83,527.8Zm-142.51-57.9h56.25c6.1,0,13.6,0,13.6-8.91s-7.5-8.91-13.6-8.91h-56.25Zm81.57,53.21c0-8.67-7.5-8.67-13.6-8.67h-68v17.34h68C1104.39,531.78,1111.89,531.78,1111.89,523.11Z"/><path class="cls-2" d="M1172.83,494c0-57,30.94-84.15,103.14-84.15,72,0,103.14,27.43,103.14,84.15,0,57-31.18,84.62-103.14,84.62C1203.77,578.66,1172.83,551.24,1172.83,494Zm145.33,0c0-17.11-6.09-32.58-42.19-32.58s-42.2,15.24-42.2,32.58c0,17.58,6.33,33.05,42.2,33.05S1318.16,511.39,1318.16,494Z"/><path class="cls-2" d="M1577.87,475.05q0-1,0-1.92c0-.18,0-.36,0-.54l-.55-6.94q-.39-3.11-1-6.08c-9.18-.82-10.66-16.14-10.66-16.14-31.79-1-36.75-23.74-36.75-23.74-24.88,1.9-31.59-6.16-32.5-7.46H1386.13V576.32h60.95V537.87h35.86l22.74,38.45h72.19l-29.06-47.12C1566.86,518.65,1577.87,499,1577.87,475.05Zm-74.54,11.25h-56.25V463.8h56.25c4.79,0,10.45,0,12.65,5.45a15.28,15.28,0,0,1,1,5.8C1516.93,486.3,1509.43,486.3,1503.33,486.3Z"/><path class="cls-1" d="M1434.09,437.65a1640.91,1640.91,0,0,0-232.32-43.75,1736.31,1736.31,0,0,0-240.29-11,1637.55,1637.55,0,0,0-236.19,22.31c-38.79,6.62-77.38,14.95-115,26.56-34.61,10.69-69.94,23.79-100.79,43.06-21.72,13.57-50.35,38.68-33.4,66.59,8.08,13.29,22.5,22.23,36.45,28.27,17.32,7.51,36,11.45,54.56,14.5,79.32,13,160,20,240.25,24.55q122.6,6.88,245.46,2.7,121.43-4.14,242.15-19.2,118.38-14.87,235-40.69c17.14-3.83,34.34-7.6,51-13.2,13.77-4.63,27.8-10.42,39-19.88,10.1-8.54,16.7-20.51,14.89-34-2.07-15.54-13.14-28.25-25.05-37.59-14.11-11.06-30.55-18.86-47-25.82-16.61-7-33.58-13.21-50.78-18.64-36.24-11.45-73.46-19.64-111-25.71-78.7-12.75-158.71-16.6-238.34-17.66q-125.55-1.68-250.85,8.9a2471.2,2471.2,0,0,0-245.09,33c-31.15,5.81-62.36,12.08-92.4,22.34-24.84,8.48-51.12,19.8-69.15,39.58-14.47,15.86-21.22,37.61-15.16,58.6,6.2,21.47,23.56,37.86,41.33,50.31,23,16.1,49.21,27.49,75.56,36.83a588.75,588.75,0,0,0,86.11,23c81.56,15.6,165.5,18.9,248.32,21.62,84.59,2.78,169.27,2.6,253.87.18,84.07-2.39,168.77-5.21,252.34-15.19a866.88,866.88,0,0,0,116.54-21.9c2.1-.55,1.21-3.81-.9-3.26-79,20.68-159.92,27.2-241.16,31.71q-122.45,6.81-245.17,7.11c-81.85.17-163.76-2-245.44-7.39-70.86-4.69-142.18-12.63-210-34.56-26.86-8.68-53.46-19.32-77.61-34.08-19.64-12-40-28-48.72-50.06-8.6-21.84-2.09-45.34,13.83-62,19-19.82,46.2-30.82,71.78-39.1,29.78-9.64,60.56-15.66,91.29-21.34q59.68-11,119.89-19.05,120-16,241.13-20.43c80.05-3,160.39-2.52,240.35,2.44,75.52,4.69,151.43,13.91,224.24,35.17,34.38,10,70.65,21.87,100.91,41.44,14.43,9.34,29.44,22.51,32.72,40.28,3,16.44-7.66,29.53-20.68,37.92-13.53,8.71-29.17,13.89-44.57,18.19-17.31,4.83-35,8.53-52.52,12.33q-56.41,12.19-113.37,21.73-116.23,19.5-233.9,28.37-117.85,9-236.19,7.67T693.84,596.58c-39.56-3.91-79.13-8.49-118.44-14.46-18.63-2.84-37.38-6.29-55.09-12.91-15.73-5.87-33-15.14-41.7-30.14-19.2-33,27.74-59.75,51.31-71.76C562.4,450.78,597,438.61,632,429c74.34-20.46,151.67-30.9,228.38-37.29a1724.62,1724.62,0,0,1,232.82-3.49,1698,1698,0,0,1,231.83,28q54.48,10.47,108.12,24.7a1.69,1.69,0,0,0,.9-3.26Z"/></g></g></svg>