<svg xmlns="http://www.w3.org/2000/svg" viewBox="0 0 36.56 36.56"><defs><style>.cls-1{fill:#0d181c;fill-rule:evenodd;}</style></defs><g id="Capa_2" data-name="Capa 2"><g id="Capa_6" data-name="Capa 6"><path class="cls-1" d="M36.56,17.81A18,18,0,0,1,9.94,33.4L0,36.56,3.24,27A17.56,17.56,0,0,1,.66,17.81a18,18,0,0,1,35.9,0Zm-18-15a15,15,0,0,0-15.09,15A14.82,14.82,0,0,0,6.4,26.59L4.51,32.15l5.8-1.85a15,15,0,1,0,8.3-27.46Zm9.06,19.07c-.11-.18-.4-.29-.84-.51s-2.6-1.27-3-1.42-.69-.22-1,.22-1.13,1.42-1.39,1.71-.51.33-1,.11A12,12,0,0,1,17,19.85a13.24,13.24,0,0,1-2.45-3c-.25-.44,0-.67.19-.89s.45-.51.67-.76a3.22,3.22,0,0,0,.44-.73.83.83,0,0,0,0-.77c-.11-.21-1-2.36-1.36-3.24s-.73-.84-1-.84a6.18,6.18,0,0,0-.73.08,2.5,2.5,0,0,0-1.28.54,4.87,4.87,0,0,0-1.54,3.64,8.47,8.47,0,0,0,1.79,4.52c.22.29,3,4.84,7.52,6.59s4.47,1.16,5.28,1.09a4.46,4.46,0,0,0,3-2.08,3.64,3.64,0,0,0,.25-2.07Z"/></g></g></svg>