<svg xmlns="http://www.w3.org/2000/svg" viewBox="0 0 133.19 103.7"><defs><style>.cls-1{fill:#0d181c;}</style></defs><g id="Capa_2" data-name="Capa 2"><g id="Capa_3" data-name="Capa 3"><path class="cls-1" d="M59.29,40.79a11,11,0,0,1,3.58-8.32,7.79,7.79,0,0,1,9.59-.83,10,10,0,0,1,4.17,5.75,11.62,11.62,0,0,1-.2,7.57A9.41,9.41,0,0,1,71,50.8a7.27,7.27,0,0,1-5.68-.09c-3.4-1.46-5.08-4.24-5.79-7.71A9.11,9.11,0,0,1,59.29,40.79Z"/><path class="cls-1" d="M58.63,68.53a12.21,12.21,0,0,1-1.79-3.16A61.71,61.71,0,0,1,53,55.47a62.12,62.12,0,0,0-6.09-13.16,22.14,22.14,0,0,1-3.19-7.73c-.91-5.43-.39-10.67,2.47-15.49a22.5,22.5,0,0,1,12.66-10c.28-.09.38,0,.52.2A11.4,11.4,0,0,0,66.3,14a4.06,4.06,0,0,0,1,.14c.42,0,.47.19.46.54V28.09c0,.29,0,.53-.4.57a9.61,9.61,0,0,0-6.87,3.95,13.75,13.75,0,0,0,.34,16.89A9.39,9.39,0,0,0,67.15,53c.6.07.65.3.65.79q0,7.71,0,15.4v1.29a1,1,0,0,1-.55-.19,8.56,8.56,0,0,0-4.74-1.13A6.63,6.63,0,0,1,58.63,68.53Z"/><path class="cls-1" d="M68.63,70.87q0-7.47,0-15V53.44c0-.24,0-.37.34-.41a10,10,0,0,0,8.09-5.77,13.45,13.45,0,0,0,.22-12.4,10.26,10.26,0,0,0-7.53-6.12l-.14,0c-1-.16-1-.16-1-1.18,0-4.3,0-8.61,0-12.92,0-.39.11-.52.5-.6a12.73,12.73,0,0,0,7.64-4.48c.19-.25.34-.17.55-.09a23.05,23.05,0,0,1,6.93,4,25.42,25.42,0,0,1,8.51,13.93A16.35,16.35,0,0,1,91.6,37.76a86.19,86.19,0,0,1-4.33,8.1A38.34,38.34,0,0,0,83.05,56a44.49,44.49,0,0,1-1.35,5.1,42.27,42.27,0,0,1-2.37,5.49c-.09.17-.21.33-.31.49-.23,0-.32.16-.44.27a18.92,18.92,0,0,1-5.11,3.58A5.24,5.24,0,0,1,68.63,70.87Z"/><path class="cls-1" d="M78.13,3.73A7.38,7.38,0,0,1,76,9a13,13,0,0,1-8,3.92,6.48,6.48,0,0,1-3.4-.7A11.29,11.29,0,0,1,60,8.81a7.44,7.44,0,0,1-1.61-6,.44.44,0,0,1,0-.1c.15-1.32.43-1.09,1.34-.63a14.44,14.44,0,0,1,2.76,1.81.57.57,0,0,0,.89,0C64.25,3,65.14,2.19,66,1.39c.44-.4.91-.76,1.36-1.15a.75.75,0,0,1,1.06,0c.67.5,1.33,1,2,1.57.88.76,1.78,1.51,2.65,2.29.26.22.4,0,.55-.09a16.13,16.13,0,0,1,3-1.92A1.51,1.51,0,0,0,76.85,2c.91-.41,1.11-.29,1.2.71A5.83,5.83,0,0,1,78.13,3.73Z"/><path class="cls-1" d="M68.63,70.87a5.24,5.24,0,0,0,4.84,0,18.92,18.92,0,0,0,5.11-3.58c.12-.11.21-.31.44-.27a11.78,11.78,0,0,1-2.19,4.21A4.26,4.26,0,0,1,74,72.86c-.58.06-.66.19-.46.74s.43,1.06.64,1.6a.82.82,0,0,1-.28,1.09c-.62.35-1.29.32-1.57-.1a1.35,1.35,0,0,1,0-1.19c.14-.53.31-1,.44-1.57s0-.52-.41-.41a14.06,14.06,0,0,1-1.59.35,4.24,4.24,0,0,0-1.76.75.72.72,0,0,0-.31.81,6.59,6.59,0,0,0,.77,1.81,2.69,2.69,0,0,1,.3,1.91,1.6,1.6,0,0,1-1.83,1.22,1.55,1.55,0,0,1-1.21-1.67A8.75,8.75,0,0,1,67.25,76c.49-1.47.28-2-1.4-2.58-1.08-.35-2.21-.49-3.27-.92a6.9,6.9,0,0,1-3.95-3.92,6.63,6.63,0,0,0,3.87.61,8.56,8.56,0,0,1,4.74,1.13,1,1,0,0,0,.55.19C68,70.77,68.33,70.76,68.63,70.87Z"/><path class="cls-1" d="M4.26,84.15V94.38q0,3.23,0,6.44a1.14,1.14,0,0,0,1.25,1.3c.52,0,1,0,1.54,0s.44.23.43.53,0,.55-.41.55c-2.21,0-4.41,0-6.62,0-.42,0-.46-.26-.46-.59s.09-.52.47-.5.66,0,1,0c1.15,0,1.4-.24,1.4-1.38q0-8,0-16c0-.47,0-.94,0-1.42A.81.81,0,0,0,2,82.4c-.49,0-1,0-1.48,0S0,82.18,0,81.83s.07-.5.46-.5c2.73,0,5.47,0,8.21,0a.66.66,0,0,1,.59.31Q13.61,87.43,18,93.2c.12.15.19.41.42.34s.1-.31.1-.47c0-3,0-6.07,0-9.1,0-1.32-.27-1.58-1.6-1.59a6.61,6.61,0,0,0-.89,0c-.55.08-.61-.22-.58-.66,0-.28.11-.38.38-.38H22.1c.37,0,.41.19.41.48s0,.57-.41.56-.83,0-1.24,0a1,1,0,0,0-1.09,1.13c0,.24,0,.47,0,.71V103c0,.22.15.56-.24.62a.8.8,0,0,1-.9-.25c-1.73-2.35-3.45-4.69-5.19-7-1.15-1.55-2.33-3.07-3.48-4.61-1.37-1.85-2.71-3.72-4.07-5.57C5.39,85.56,4.87,84.92,4.26,84.15Z"/><path class="cls-1" d="M95.26,103.19c-1.59,0-3.19,0-4.78,0-.41,0-.61-.09-.62-.56s.24-.54.62-.52h1.66c.3,0,.39-.13.28-.41-.57-1.48-1.15-3-1.73-4.45-.12-.32-.39-.29-.64-.29C89,97,88,97,87,97s-1.77,0-2.65-.06a.63.63,0,0,0-.69.43c-.41,1.11-.85,2.21-1.25,3.32s-.06,1.39,1,1.41c.47,0,.94,0,1.41,0s.46.18.46.51,0,.57-.47.57q-3.08,0-6.15,0c-.39,0-.39-.24-.38-.5s0-.64.38-.57c1.69.29,2.33-.75,2.84-2.1,1.1-2.93,2.26-5.83,3.41-8.74s2.31-5.85,3.47-8.77c.12-.31.24-.62.34-.94a.89.89,0,0,1,1-.73c.51,0,.68.28.83.67l5.85,14.81c.71,1.79,1.43,3.58,2.11,5.38a.55.55,0,0,0,.66.41c.27,0,.55,0,.83,0s.65,0,.65.55-.3.54-.68.54H95.26Zm-8-14.76a1.78,1.78,0,0,0-.17.26L84.36,95.5c-.18.44.09.46.4.46,1.65,0,3.3,0,4.95,0,.47,0,.52-.14.36-.55-.74-1.88-1.44-3.78-2.17-5.66A3.87,3.87,0,0,0,87.29,88.43Z"/><path class="cls-1" d="M35.22,100.38a9.23,9.23,0,0,1-1.43,1.74,5.35,5.35,0,0,1-4.24,1.38c-.41,0-.83,0-1.23-.13a2.88,2.88,0,0,1-2.4-3.11c0-2.68,0-5.36,0-8,0-.22,0-.44,0-.65,0-.41-.16-.57-.56-.54s-.71,0-1.07,0-.63,0-.63-.52.2-.55.61-.54a55.22,55.22,0,0,0,5.6-.25c.55,0,.69.14.68.67,0,3.14,0,6.27,0,9.4a6.63,6.63,0,0,0,.08,1A1.32,1.32,0,0,0,32.44,102a3.73,3.73,0,0,0,2.22-2.16,5.14,5.14,0,0,0,.61-2.5c0-1.87,0-3.74,0-5.61,0-.5-.12-.73-.66-.67s-.87,0-1.3,0-.52-.15-.52-.52.1-.55.51-.54c1.37,0,2.75,0,4.13-.12.64,0,1.29-.06,1.94-.13.49,0,.64.11.63.61,0,3.66,0,7.33,0,11,0,1,0,.8.83.81a7.66,7.66,0,0,0,.83,0c.37,0,.58.05.59.5s-.23.56-.62.56a54.59,54.59,0,0,0-5.72.23c-.5.06-.66-.14-.64-.63A13.24,13.24,0,0,0,35.22,100.38Z"/><path class="cls-1" d="M125.37,89.71a8,8,0,0,1,5.16,1.56,6.18,6.18,0,0,1,2.64,4.85,6.4,6.4,0,0,1-2.47,5.7,8.07,8.07,0,0,1-4.35,1.68,9.11,9.11,0,0,1-6.66-1.61,6.3,6.3,0,0,1-2.51-4.75c-.37-4.62,3.55-7.4,7.31-7.43Zm2.48,6.82a32,32,0,0,0-.12-3.66c-.18-1.44-.65-2.1-1.78-2.3a4.37,4.37,0,0,0-1.53,0,1.87,1.87,0,0,0-1.58,1.54,12.83,12.83,0,0,0-.31,2.69,51.4,51.4,0,0,0,.09,5.55c.17,1.66.91,2.35,2.56,2.36a2.19,2.19,0,0,0,2.45-2A25.47,25.47,0,0,0,127.85,96.53Z"/><path class="cls-1" d="M61.05,93a9.46,9.46,0,0,1,2.06-2.5,3.36,3.36,0,0,1,4.2,0A2.68,2.68,0,0,1,68,93.56a2.44,2.44,0,0,1-2.79,1.25,2.17,2.17,0,0,1-1.45-2.89c.08-.2.35-.44.07-.62a.58.58,0,0,0-.74.19,6.45,6.45,0,0,0-1.92,4.32c-.1,2,0,3.9,0,5.85,0,.35.1.51.47.49.53,0,1.07,0,1.6,0s.41.23.42.53,0,.52-.43.52h-8.1c-.39,0-.49-.19-.49-.55s.16-.49.53-.5c1.27,0,1.27,0,1.27-1.27,0-2.92,0-5.83,0-8.75,0-1.11-.07-1.17-1.17-1-.61.07-.69,0-.65-.62,0-.28.13-.38.39-.4,1.85-.11,3.69-.22,5.54-.35.38,0,.52.09.51.49C61,91.12,61.05,92,61.05,93Z"/><path class="cls-1" d="M45.05,96.29c0-1.56,0-3.11,0-4.67,0-.43-.12-.62-.57-.58-.27,0-.55,0-.82,0s-.59-.06-.61-.51.27-.48.6-.48C45,90,45,90,45,88.65c0-.77,0-1.53,0-2.3,0-.26.06-.43.36-.39A15.39,15.39,0,0,0,49,86c.52-.06.63.15.61.62,0,1,0,1.89,0,2.84,0,.54.18.68.67.66s1.11,0,1.66,0c.31,0,.5.11.46.45s-.05.55-.46.54c-.61,0-1.22,0-1.83,0-.39,0-.5.15-.5.53q0,4,0,8.09c0,.31,0,.63.07.94s0,.77.45.94a1.34,1.34,0,0,0,1.34-.1,1.91,1.91,0,0,0,.76-1.29c.08-.45.35-.4.65-.37s.26.35.23.54a3.42,3.42,0,0,1-1.46,2.27,5.72,5.72,0,0,1-3.64.91c-.18,0-.35,0-.53,0a2.2,2.2,0,0,1-2.4-2.39c0-1.59,0-3.19,0-4.78Z"/><path class="cls-1" d="M109,98.31c.93-2,1.84-4,2.73-6.07.35-.78.13-1.08-.74-1.1h-1c-.38,0-.63-.14-.61-.6s.28-.45.59-.45h4.55c.31,0,.44.12.41.42s.05.61-.34.55c-1.36-.17-1.73.82-2.15,1.76q-1.25,2.78-2.48,5.55c-.65,1.47-1.27,3-1.94,4.42-.17.37-.19.93-.84.91a.64.64,0,0,1-.65-.38L103.92,98q-1.4-2.81-2.78-5.61l-.21-.42c-.38-.92-.39-1-1.32-.87-.43,0-.51-.12-.53-.48s.1-.53.5-.52c2.4,0,4.81,0,7.21,0,.33,0,.52.07.51.46s-.09.53-.5.54c-1.22,0-1.21.05-.7,1.16.83,1.8,1.65,3.61,2.48,5.42A1.56,1.56,0,0,0,109,98.31Z"/><path class="cls-1" d="M75.94,95.93c0,1.89,0,3.78,0,5.67,0,.44.12.61.56.57s.71,0,1.06,0,.52.2.54.57-.21.47-.55.47c-2.58,0-5.15,0-7.73,0-.39,0-.63-.06-.63-.54s.28-.51.64-.51c1.38,0,1.38,0,1.38-1.4,0-3,0-6.06,0-9.09,0-.5-.15-.67-.64-.62s-.75,0-1.12,0-.5,0-.5-.41.06-.57.48-.58c2,0,4-.17,5.94-.35.44,0,.58.09.58.54,0,1.89,0,3.78,0,5.67Z"/></g></g></svg>