<svg xmlns="http://www.w3.org/2000/svg" viewBox="0 0 156.42 74.76"><defs><style>.cls-1{fill:#0d181c;}</style></defs><g id="Capa_2" data-name="Capa 2"><g id="Capa_3" data-name="Capa 3"><path class="cls-1" d="M45.43,72.38c-2.21-12.26-4.61-23.74-6.27-35.33C37.87,28,37.69,18.7,36.64,9.56,36,4.31,37.7,2,43.11,2.56c1.61.18,3.27,0,5.6,0,.66,10.32,1.31,20.5,2,31.94,8.69-9.6,10.58-20.09,10.07-32.61L75.53,8.39c-1.33,12-6.83,22-14.5,31.44l17.3,18.65L69.67,69.66,53.89,46.6l-1.29.51c2.06,6.63,4.11,13.25,6.36,20.48Z"/><path class="cls-1" d="M33.55,26,23,26.45,16.24,13.39C12.07,21,14.5,28,20.64,31.79a71.32,71.32,0,0,1,12,8.65,18.37,18.37,0,0,1,6,15.45c-.57,6.17-2.42,11.75-8.65,14.29-6.53,2.66-12.42.54-17.26-4-4.61-4.37-6.8-9.91-5.92-17L17.4,48c3.29,9,3.54,9.29,8.69,9.59,1-6.51-1.22-10.47-9-14.44C10.62,39.88,5.27,35.63,2.54,28.75.26,23-1,17.16,1,11,5-.71,18.82-3.78,27.13,5.26,31.79,10.34,34.23,17.77,33.55,26Z"/><path class="cls-1" d="M117,5.91c11.89,0,22.71-.06,33.52.09a3.64,3.64,0,0,1,2.67,2.09c1.22,4.16,2.1,8.42,3.25,13.23L143,19.92c1.25,17.69,5.2,34.21,10.25,51.16l-11.17,1.4c-7.19-17.12-9.41-34.76-10.26-52.55-4.5-.71-9.3-.27-12.34-2.38C117.45,16.16,117.94,11.12,117,5.91Z"/><path class="cls-1" d="M80.49,5.3,94,4.44c0,1.86.08,3.42,0,5-.81,13.56.2,26.86,5,39.71,4.64,12.33,8.44,14.32,21.22,10.31,1.14,3.8,2.27,7.6,3.36,11.25-8.82,5.66-18.4,5.55-25.26-1.08-4-3.88-7.81-8.65-9.86-13.76C82.1,39.91,81,23,80.49,5.3Z"/><path class="cls-1" d="M101.25,23.22l12.55-.8c1.66,10.44,3.23,20.36,4.94,31.12l-10.31,3.81C106,45.87,103.73,35,101.25,23.22Z"/><path class="cls-1" d="M107.44,21.77c-2.91-3.62-6-5.82-6-7.95,0-1.86,3.41-4.73,5.71-5.21a4.91,4.91,0,0,1,6.06,5.4C113,16.25,110.23,18.19,107.44,21.77Z"/></g></g></svg>