<svg xmlns="http://www.w3.org/2000/svg" viewBox="0 0 91.16 99.75"><defs><style>.cls-1{fill:#0d181c;}</style></defs><g id="Capa_2" data-name="Capa 2"><g id="Capa_3" data-name="Capa 3"><path class="cls-1" d="M51.67,89.23c1.44,0,2.87,0,4.31,0a2.73,2.73,0,0,1,3,2.75c.09,1.71.08,3.42,0,5.12a2.7,2.7,0,0,1-2.66,2.62c-.73.06-1-.16-1-.93,0-2.54,0-5.08,0-7.62A4.15,4.15,0,0,0,55,90.1c-.36.2-.87.31-1.06.62a3.8,3.8,0,0,0-.52,1.67c-.07,1.5,0,3,0,4.52a2.75,2.75,0,0,1-2.58,2.81c-.76.07-1.1-.13-1.08-1,0-2.54,0-5.08,0-7.62a3.87,3.87,0,0,0-.33-1c-.34.19-.81.3-1,.58a3.39,3.39,0,0,0-.51,1.57c-.07,1.57,0,3.14,0,4.71A2.81,2.81,0,0,1,45,99.73c-.62,0-.91-.14-.9-.83,0-2.28,0-4.55,0-6.83a2.75,2.75,0,0,1,2.87-2.84c.77,0,1.54,0,2.31,0h2.31Z"/><path class="cls-1" d="M81.92,84.2c2.27-.28,3.57.82,3.62,2.87s0,2.12,2.22,2.15,3.38,1.13,3.39,3.4c0,1.4,0,2.81,0,4.21a2.92,2.92,0,0,1-2.65,2.89c-.8.07-1.16-.14-1.14-1,.06-2,0-4.08,0-6.12a4.2,4.2,0,0,0-.15-1.28,1.54,1.54,0,0,0-1.62-1.22c0,.44-.06.82-.07,1.21,0,1.9,0,3.81,0,5.72a2.7,2.7,0,0,1-2.65,2.72c-.76,0-1-.23-1-1,0-3.24,0-6.48,0-9.73Z"/><path class="cls-1" d="M70.59,95.46c0,1.13,0,2.27,0,3.41,0,.56-.13.87-.78.87-1.94,0-3.88,0-5.82,0a2.72,2.72,0,0,1-2.72-2.77c0-1.64,0-3.28,0-4.92A2.76,2.76,0,0,1,64,89.24q1.86-.06,3.72,0A2.78,2.78,0,0,1,70.55,92c0,1.14,0,2.28,0,3.42ZM66.82,98.8c0-.44.05-.83.06-1.22,0-2.14,0-4.28,0-6.42a3.78,3.78,0,0,0-.3-1,4.34,4.34,0,0,0-1.07.62,1.63,1.63,0,0,0-.41,1c0,1.84-.07,3.68,0,5.51A1.54,1.54,0,0,0,66.82,98.8Z"/><path class="cls-1" d="M34.58,95.53c0,1.1,0,2.2,0,3.31,0,.62-.19.91-.85.9-1.81,0-3.61,0-5.41,0a2.82,2.82,0,0,1-3-3.09c0-1.51,0-3,0-4.51a2.82,2.82,0,0,1,2.82-2.9c1.24,0,2.48,0,3.71,0a2.73,2.73,0,0,1,2.71,2.68c0,.1,0,.2,0,.3,0,1.1,0,2.21,0,3.31Zm-3.76,3.3c0-.44.09-.82.09-1.21,0-2.13,0-4.27,0-6.4a3.87,3.87,0,0,0-.33-1.12,6.09,6.09,0,0,0-1.12.71,1.4,1.4,0,0,0-.34.91c0,1.84-.07,3.67,0,5.5A1.61,1.61,0,0,0,30.82,98.83Z"/><path class="cls-1" d="M9.38,89.35c0,2.69,0,5.33,0,8A2.53,2.53,0,0,1,7,99.66a37.7,37.7,0,0,1-4.51,0A2.78,2.78,0,0,1,0,97.13c0-.36,0-.73,0-1.1,0-2.21,0-4.41,0-6.57a2.71,2.71,0,0,1,3.7,2.39c0,1.87,0,3.75,0,5.62,0,.43,0,.86.06,1.28,1.17,0,1.81-.67,1.84-1.94,0-1.51,0-3,0-4.52C5.7,90.15,7.11,89,9.38,89.35Z"/><path class="cls-1" d="M21.54,99.72c-.3,0-.6,0-.9,0a2.76,2.76,0,0,1-2.8-2.91c0-3.92,0-7.84,0-11.76,0-.85.32-1,1.08-.92a2.73,2.73,0,0,1,2.6,2.69,7,7,0,0,1,0,1.21c-.07.82.16,1.29,1.1,1.2.2,0,.43.2.65.31-.15.19-.25.45-.44.55a2.22,2.22,0,0,0-1.26,2.12c0,1.54,0,3.08,0,4.62a2.06,2.06,0,0,0,1.27,2c.2.09.32.34.47.52a3.1,3.1,0,0,1-.7.36A6.85,6.85,0,0,1,21.54,99.72Z"/><path class="cls-1" d="M40.48,91.12c0,1.8,0,3.61,0,5.41a2.24,2.24,0,0,0,1.28,2.39c.15.06.21.34.31.52-.16.1-.32.26-.48.26a18.82,18.82,0,0,1-2.6-.06,2.48,2.48,0,0,1-2-2.41c0-3.54,0-7.09,0-10.63a2.48,2.48,0,0,1,2.43-2.47c.76-.09,1.1.16,1.09,1,0,2,0,4,0,6Z"/><path class="cls-1" d="M74.3,99.71c-.44,0-.87,0-1.3,0a.41.41,0,0,1-.14-.79c1.36-.46,1.5-1.55,1.49-2.75s0-2.67,0-4a2.79,2.79,0,0,1,3-2.93c.67,0,1.34,0,2,0,.17,0,.33.15.49.24-.11.18-.18.46-.33.52a2.35,2.35,0,0,0-1.39,2.53c0,1.3,0,2.61,0,3.91,0,2.25-1.06,3.28-3.33,3.31h-.5Z"/><path class="cls-1" d="M15.43,93.54c0,1.13,0,2.27,0,3.4a2.8,2.8,0,0,1-2.92,2.79c-.52,0-.83-.12-.82-.71,0-2.4,0-4.8.06-7.2a2.74,2.74,0,0,1,2.79-2.6c.62,0,.92.12.89.81,0,1.17,0,2.34,0,3.51Z"/><path class="cls-1" d="M15.63,85.1c-.24,2-1.52,3.28-3.23,3.14a.86.86,0,0,1-.65-.42,2.85,2.85,0,0,1,3-3.65C15.09,84.21,15.34,84.78,15.63,85.1Z"/><path class="cls-1" d="M89.93,55.38a12,12,0,0,0-3.58-4.27A68.7,68.7,0,0,1,74.82,38.73a2.19,2.19,0,0,1-.35-1.43c.47-3.48,1.27-6.93,1.48-10.42a35.51,35.51,0,0,0-5.7-22.45,10.07,10.07,0,0,0-16.73.09c-2.61,4-3.43,8.38-3.65,13A39.8,39.8,0,0,0,53.1,34.81a3.51,3.51,0,0,1,.08,2.77A69.25,69.25,0,0,1,46.6,51.2c-.56.9-1.21,1.75-1.88,2.72-.51-.59-.93-1.06-1.33-1.55-2.9-3.62-4.8-7.79-6.68-12a2.66,2.66,0,0,1,0-2.44c3.63-7.63,5.45-15.59,4.26-24.06a21.72,21.72,0,0,0-3.34-9.36,10.05,10.05,0,0,0-16.89.14,36.06,36.06,0,0,0-5.6,18.91,51.85,51.85,0,0,0,1.45,13.13,2.39,2.39,0,0,1,0,1.59,30.1,30.1,0,0,1-2.2,3A88,88,0,0,1,3.72,52a10.25,10.25,0,0,0-1.85,2.1,8.17,8.17,0,0,0,11.7,11c2-1.38,3.85-2.9,5.69-4.45s3.29-3,4.92-4.54c.08.05.15.08.18.13.19.28.37.56.54.85,3.07,5,6.72,9.5,11.73,12.74,5.41,3.49,10.9,4.06,16.64.74A34.2,34.2,0,0,0,64.11,60.34C65.09,59,66,57.52,67,56c.34.32.59.58.87.82,3.23,2.75,6.39,5.6,9.73,8.21a7.93,7.93,0,0,0,10-.21A8.18,8.18,0,0,0,89.93,55.38Z"/></g></g></svg>